# xmcd CD database file
#
# Track frame offsets:
#	150
#	15315
#	37960
#	56456
#	74102
#	95543
#	113959
#	130427
#	146967
#	174601
#	187673
#	209987
#
# Disc length: 3088 seconds
#
# Revision: 2
# Processed by: cddbd v1.4PL0 Copyright (c) Steve Scherf et al.
# Submitted via: CDex 1.51
#
DISCID=b60c0e0c
DTITLE=Slo Leak - Slo Leak
DYEAR=1996
DGENRE=Blues
TTITLE0=Cry For You
TTITLE1=White Lines
TTITLE2=Tongue Tied
TTITLE3=Elvis Slept Here
TTITLE4=Mr. Lucky
TTITLE5=You Don't Love Me
TTITLE6=Katie Mae
TTITLE7=Drunk
TTITLE8=That Did It
TTITLE9=Flatfoot Sam
TTITLE10=Cruel Twist
TTITLE11=Satisfy Me
EXTD=YEAR: 1996
EXTT0=
EXTT1=
EXTT2=
EXTT3=
EXTT4=
EXTT5=
EXTT6=
EXTT7=
EXTT8=
EXTT9=
EXTT10=
EXTT11=
PLAYORDER=
